<?xml version="1.0" standalone="no"?>
<!DOCTYPE svg PUBLIC "-//W3C//DTD SVG 20010904//EN"
 "http://www.w3.org/TR/2001/REC-SVG-20010904/DTD/svg10.dtd">
<svg version="1.0" xmlns="http://www.w3.org/2000/svg"
 width="512.000000pt" height="512.000000pt" viewBox="0 0 512.000000 512.000000"
 preserveAspectRatio="xMidYMid meet">

<g transform="translate(0.000000,512.000000) scale(0.100000,-0.100000)"
fill="#000000" stroke="none">
<path d="M0 2560 l0 -2560 2560 0 2560 0 0 2560 0 2560 -2560 0 -2560 0 0
-2560z m4690 10 l0 -2160 -2155 0 -2155 0 0 2160 0 2160 2155 0 2155 0 0
-2160z"/>
<path d="M1213 4180 c-8 -19 -18 -42 -22 -50 -11 -21 -47 -173 -60 -251 -16
-94 -14 -249 5 -365 8 -54 18 -115 21 -135 4 -30 0 -45 -24 -80 -94 -139 -163
-308 -215 -529 -18 -76 -18 -530 0 -625 28 -149 67 -288 107 -380 7 -16 19
-45 26 -62 8 -18 17 -33 21 -33 5 0 8 -5 8 -11 0 -42 180 -255 273 -324 58
-43 183 -112 246 -136 91 -34 268 -76 381 -91 149 -19 1044 -18 1190 1 114 15
280 56 375 93 59 23 189 92 211 113 6 5 22 17 35 25 26 16 161 150 194 190 28
36 95 147 123 204 52 107 100 274 133 461 17 96 17 473 0 545 -7 30 -18 75
-23 100 -13 56 -46 159 -58 182 -6 10 -10 23 -10 30 0 22 -88 188 -132 251
-16 22 -19 37 -13 65 4 20 11 60 17 87 5 28 12 122 15 209 7 198 -5 288 -60
451 -32 95 -36 99 -113 96 -60 -2 -112 -15 -214 -53 -51 -19 -184 -89 -188
-99 -2 -5 -9 -9 -15 -9 -7 0 -26 -13 -44 -28 -17 -15 -44 -36 -59 -47 -15 -11
-48 -39 -73 -63 l-46 -43 -85 8 c-114 11 -1025 10 -1121 -1 l-76 -9 -39 38
c-52 49 -210 167 -254 188 -19 10 -42 22 -50 26 -78 47 -191 82 -288 90 l-83
6 -16 -35z m2255 -1455 c91 -32 149 -80 206 -170 37 -59 61 -111 84 -180 41
-126 57 -230 57 -375 0 -137 -7 -179 -46 -267 -11 -24 -19 -45 -19 -48 0 -15
-88 -133 -124 -168 -107 -103 -229 -155 -411 -174 -167 -17 -1063 -20 -1250
-3 -121 11 -248 41 -261 61 -3 5 -12 9 -20 9 -35 0 -151 95 -206 170 -90 122
-128 244 -128 415 0 114 5 147 42 305 26 111 96 253 152 310 76 79 195 129
306 130 49 0 163 -13 305 -35 292 -46 431 -46 750 0 145 21 254 35 300 39 73
7 219 -4 263 -19z"/>
<path d="M1833 2481 c-59 -43 -93 -92 -133 -196 -7 -17 -18 -70 -25 -120 -36
-260 87 -525 245 -525 22 0 57 9 80 21 35 18 50 33 104 99 16 21 45 94 62 158
16 62 18 249 3 307 -15 59 -51 147 -69 169 -69 87 -114 116 -178 116 -38 0
-58 -6 -89 -29z"/>
<path d="M3136 2494 c-66 -36 -123 -116 -158 -221 -33 -99 -33 -297 0 -396 65
-196 197 -284 315 -211 47 30 77 58 77 74 0 5 4 10 8 10 5 0 17 19 27 43 9 23
21 51 26 62 31 75 43 294 19 373 -32 109 -46 145 -62 162 -10 11 -18 22 -18
25 0 9 -20 28 -69 63 -50 37 -115 43 -165 16z"/>
</g>
</svg>
