<?xml version="1.0" standalone="no"?>
<!DOCTYPE svg PUBLIC "-//W3C//DTD SVG 20010904//EN"
 "http://www.w3.org/TR/2001/REC-SVG-20010904/DTD/svg10.dtd">
<svg version="1.0" xmlns="http://www.w3.org/2000/svg"
 width="512.000000pt" height="512.000000pt" viewBox="0 0 512.000000 512.000000"
 preserveAspectRatio="xMidYMid meet">

<g transform="translate(0.000000,512.000000) scale(0.100000,-0.100000)"
fill="#000000" stroke="none">
<path d="M0 2560 l0 -2560 2560 0 2560 0 0 2560 0 2560 -2560 0 -2560 0 0
-2560z m1372 1648 c15 -1 25 -5 21 -11 -3 -5 3 -6 17 -2 15 5 20 3 16 -3 -4
-6 2 -11 11 -11 41 -1 52 -5 58 -19 3 -8 12 -12 20 -8 8 3 17 1 20 -5 4 -5 10
-7 15 -4 5 3 15 -2 24 -10 9 -9 26 -18 38 -20 12 -3 25 -10 30 -17 4 -7 8 -9
8 -4 0 6 14 -3 32 -20 18 -16 28 -22 23 -14 -6 9 -2 7 8 -3 9 -11 17 -15 17
-11 1 5 12 -4 26 -21 15 -16 23 -23 19 -15 -4 8 3 4 16 -10 13 -14 20 -19 14
-11 -6 10 0 8 17 -4 14 -11 25 -24 25 -30 -1 -5 5 -9 13 -10 8 -1 14 -6 12
-13 -1 -7 1 -11 5 -10 5 2 23 -12 42 -30 26 -24 39 -31 55 -25 12 4 36 7 54 6
17 -1 32 2 32 7 0 5 234 9 520 9 352 0 520 -4 520 -11 0 -5 6 -8 14 -5 7 3 33
1 57 -4 35 -8 44 -7 51 6 5 8 13 13 17 10 5 -2 15 3 22 12 12 14 12 16 -1 10
-8 -4 -6 -2 4 5 10 7 32 25 48 41 16 15 33 27 39 27 6 0 8 4 5 9 -3 4 13 15
35 24 27 11 38 20 33 28 -4 8 -3 9 4 5 7 -4 12 -2 12 3 0 6 9 11 21 11 11 0
18 4 15 9 -7 11 55 42 68 34 5 -3 6 -1 2 5 -4 7 -2 12 3 12 22 0 26 2 45 18
11 10 16 11 11 3 -5 -9 1 -7 19 4 14 10 26 14 26 9 0 -4 6 0 13 11 8 10 19 15
25 11 6 -3 14 -2 17 4 4 6 16 8 27 4 14 -4 18 -2 14 5 -5 7 -1 9 8 5 9 -3 16
-2 16 4 0 5 10 10 23 10 12 0 50 3 84 6 56 5 64 3 74 -16 8 -15 8 -19 -1 -13
-12 7 -11 5 23 -61 9 -17 14 -34 10 -38 -3 -3 -1 -6 6 -6 7 0 9 -5 6 -10 -4
-6 -1 -17 5 -25 6 -8 9 -19 5 -25 -3 -5 -3 -10 2 -10 8 0 12 -23 15 -82 0 -15
4 -26 8 -23 6 4 13 -98 13 -200 1 -85 -7 -195 -13 -195 -3 0 -7 -17 -9 -37 -4
-69 -5 -73 -14 -73 -5 0 -7 -6 -4 -12 2 -7 1 -22 -3 -33 -5 -13 -1 -25 9 -33
9 -8 10 -10 3 -7 -11 6 -11 3 -1 -13 7 -12 17 -18 23 -15 5 3 6 1 2 -5 -4 -6
3 -21 14 -32 11 -11 18 -26 14 -32 -4 -6 -3 -8 2 -5 6 3 16 -3 23 -15 8 -13 9
-18 1 -13 -14 9 7 -30 35 -64 11 -13 14 -21 8 -17 -9 5 -11 2 -7 -8 3 -9 10
-16 15 -16 5 0 8 -3 7 -7 -1 -5 4 -19 11 -32 10 -18 10 -22 0 -16 -13 9 -6 -8
16 -35 12 -14 15 -28 16 -73 0 -9 3 -15 7 -13 7 4 11 -13 12 -57 1 -9 5 -15
10 -12 4 3 8 -5 9 -18 1 -60 5 -86 11 -82 4 2 7 -8 8 -23 0 -23 1 -366 0 -484
0 -21 -3 -36 -8 -33 -4 2 -7 -8 -8 -23 -1 -61 -6 -100 -13 -96 -8 4 -9 -4 -10
-58 -1 -16 -5 -26 -9 -23 -5 3 -9 -3 -10 -12 -1 -47 -5 -61 -14 -56 -5 4 -7
-1 -3 -10 3 -9 2 -19 -3 -22 -5 -3 -6 -13 -3 -22 4 -11 3 -14 -5 -9 -10 6 -17
-17 -14 -46 1 -3 -5 -12 -13 -18 -8 -7 -15 -23 -15 -36 0 -13 -5 -24 -12 -24
-6 0 -8 -3 -5 -7 4 -3 -1 -15 -10 -26 -13 -15 -14 -18 -3 -13 8 4 4 -2 -10
-14 -14 -12 -18 -18 -10 -14 13 7 13 6 0 -12 -8 -10 -21 -25 -28 -32 -7 -8 -9
-18 -6 -24 4 -7 2 -8 -4 -4 -11 7 -17 -6 -13 -27 1 -5 -3 -6 -9 -2 -5 3 -10 2
-10 -3 0 -5 -11 -22 -25 -38 -41 -47 -44 -52 -37 -60 4 -4 2 -4 -4 -1 -13 7
-56 -38 -46 -48 4 -4 0 -5 -8 -3 -8 2 -14 -3 -12 -10 1 -8 -2 -11 -8 -7 -5 3
-13 -1 -16 -9 -3 -9 -13 -16 -21 -16 -8 0 -11 -5 -8 -10 4 -6 -7 -15 -24 -21
-17 -6 -28 -15 -25 -20 3 -5 0 -9 -6 -9 -21 0 -80 -32 -75 -40 5 -8 -21 -21
-39 -19 -5 0 -12 -5 -17 -12 -4 -7 -20 -14 -36 -17 -15 -2 -36 -10 -45 -19 -9
-8 -22 -12 -29 -7 -8 4 -10 3 -5 -4 4 -7 4 -13 -1 -13 -4 -1 -19 -3 -33 -6
-14 -2 -33 -4 -43 -4 -9 0 -15 -4 -12 -9 5 -9 -2 -10 -57 -11 -16 -1 -25 -5
-22 -11 4 -6 -2 -8 -15 -3 -11 3 -21 2 -21 -3 0 -6 -10 -10 -22 -11 -89 -2
-118 -5 -118 -12 0 -5 -20 -6 -45 -2 -25 3 -45 2 -45 -3 0 -5 -218 -9 -505 -9
-287 0 -505 4 -505 9 0 5 -20 6 -45 3 -25 -4 -45 -3 -45 2 0 5 -15 9 -32 9
-58 -1 -118 6 -118 14 0 4 -7 5 -15 2 -8 -4 -15 -1 -15 4 0 6 -8 11 -17 11
-52 1 -72 4 -68 12 3 4 -3 8 -12 8 -10 0 -29 2 -43 4 -14 3 -29 5 -33 6 -5 0
-5 6 -1 13 5 7 3 8 -5 4 -7 -5 -21 0 -31 9 -10 9 -23 14 -29 11 -5 -4 -12 -2
-16 4 -4 6 -10 8 -15 5 -5 -3 -18 3 -30 15 -11 11 -20 17 -20 14 0 -3 -13 3
-29 12 -17 10 -28 21 -26 25 5 7 -33 22 -48 20 -5 -1 -6 3 -3 8 5 7 -15 22
-34 25 -3 1 -12 7 -20 14 -8 7 -24 20 -35 28 -11 9 -13 12 -5 8 8 -4 -3 10
-25 32 -21 21 -43 38 -48 36 -5 -1 -6 2 -2 8 3 5 -1 13 -9 16 -9 3 -16 12 -16
20 0 7 -9 18 -20 24 -11 6 -19 16 -17 23 1 7 -4 11 -12 9 -8 -2 -11 3 -8 12 4
9 -1 20 -11 25 -9 6 -13 11 -8 11 6 0 1 7 -10 16 -10 8 -12 12 -4 8 11 -6 10
-2 -2 13 -10 11 -18 23 -18 28 0 4 -8 14 -18 22 -10 9 -11 11 -2 7 11 -5 10
-1 -3 13 -10 12 -20 30 -22 40 -2 10 -4 19 -5 21 -2 1 -4 7 -5 12 -1 6 -4 13
-5 18 -1 4 -2 10 -1 15 0 4 -4 7 -11 7 -6 0 -8 3 -5 6 3 4 1 16 -6 28 -12 21
-17 46 -18 79 0 9 -3 15 -7 13 -7 -4 -9 3 -13 59 -1 14 -4 25 -8 25 -7 0 -14
39 -13 78 0 12 -3 22 -7 22 -11 0 -14 66 -14 325 0 243 3 305 14 305 3 0 7 11
8 25 4 57 6 65 14 65 4 0 5 5 2 10 -4 6 -1 17 5 25 6 8 8 20 4 26 -5 8 -3 9 6
4 10 -6 12 -4 7 7 -3 9 1 25 9 37 8 12 13 25 9 30 -3 5 -1 12 5 16 6 4 8 11 4
16 -3 6 2 19 12 30 9 10 13 19 9 19 -4 0 -1 8 8 18 9 10 18 28 20 40 2 11 12
31 23 43 12 15 14 20 4 15 -12 -6 -12 -5 1 6 9 7 14 19 11 27 -3 8 0 11 6 7 9
-5 22 14 21 31 -1 3 6 10 15 15 9 5 14 13 11 18 -3 4 2 11 11 14 8 3 12 10 9
16 -3 5 -1 10 5 10 7 0 9 8 4 23 -4 12 -7 30 -6 40 0 9 -3 17 -7 17 -8 0 -14
51 -13 103 1 15 -3 27 -7 27 -5 0 -8 72 -8 160 0 88 3 160 7 160 4 0 8 12 8
28 1 15 2 44 3 64 0 21 4 36 8 34 6 -4 10 13 11 57 1 10 6 15 12 11 7 -5 9 -1
5 9 -3 9 -2 19 4 23 6 3 8 12 5 19 -2 7 4 23 15 36 22 26 24 33 7 23 -7 -4 -5
2 5 13 9 11 14 22 11 26 -4 3 22 4 57 1 35 -3 76 -6 91 -6z"/>
<path d="M3306 2751 c-5 -8 -91 -13 -193 -13 -18 0 -33 -3 -33 -7 0 -5 -12 -8
-27 -9 -77 -1 -123 -6 -123 -13 0 -5 -14 -6 -32 -2 -21 4 -29 3 -24 -5 4 -7
-5 -11 -26 -10 -82 0 -158 -6 -158 -13 0 -5 -29 -6 -65 -2 -46 4 -65 2 -65 -6
0 -7 -19 -11 -50 -11 -30 0 -50 4 -50 11 0 8 -17 9 -55 4 -30 -3 -55 -3 -55 2
0 8 -61 14 -142 15 -16 1 -28 5 -28 10 0 4 -11 6 -25 2 -14 -3 -25 -2 -25 3 0
10 -59 16 -133 14 -21 0 -36 3 -33 7 3 5 -42 8 -99 8 -58 0 -105 -3 -105 -6 0
-3 -8 -6 -17 -7 -64 -5 -116 -28 -146 -65 -10 -13 -15 -16 -11 -8 4 8 -9 -1
-29 -20 -38 -35 -46 -47 -24 -34 8 5 8 3 -2 -9 -7 -9 -18 -14 -24 -10 -6 3 -7
1 -3 -5 4 -7 2 -12 -4 -12 -6 0 -9 -4 -6 -9 3 -5 -1 -12 -10 -15 -8 -3 -12
-10 -9 -16 3 -5 1 -10 -5 -10 -6 0 -8 -4 -5 -10 3 -5 2 -10 -4 -10 -8 0 -20
-23 -27 -52 -1 -5 -3 -11 -4 -15 -1 -5 -2 -11 -1 -15 0 -5 -3 -8 -7 -8 -8 0
-12 -14 -13 -53 0 -9 -4 -15 -9 -12 -5 3 -9 -3 -10 -12 -1 -43 -5 -63 -11 -63
-6 0 -11 -45 -10 -93 0 -15 -3 -26 -7 -23 -8 5 -16 -65 -16 -149 0 -76 8 -145
18 -145 4 0 5 -7 2 -16 -4 -9 -1 -23 5 -30 6 -7 8 -18 4 -24 -3 -5 -1 -10 6
-10 7 0 9 -3 6 -7 -4 -3 0 -17 8 -30 9 -13 13 -28 10 -33 -3 -6 -1 -10 6 -10
7 0 9 -3 6 -7 -4 -3 3 -18 15 -31 13 -14 16 -22 8 -18 -8 4 -4 -2 10 -14 14
-12 18 -19 10 -15 -8 4 -4 -3 10 -15 14 -12 18 -19 10 -15 -8 3 3 -10 25 -30
22 -20 39 -41 37 -47 -1 -5 2 -7 8 -3 5 3 10 1 10 -5 0 -6 13 -16 30 -21 16
-6 28 -16 27 -22 -1 -7 4 -11 11 -9 6 1 12 -3 12 -9 0 -5 4 -8 9 -5 4 3 19 -3
31 -14 12 -11 27 -17 31 -14 5 3 9 0 9 -6 0 -6 4 -9 9 -5 5 3 13 0 16 -6 4 -5
14 -8 22 -5 8 4 11 2 7 -5 -4 -8 1 -9 15 -4 11 3 21 3 21 -2 0 -10 20 -12 98
-14 28 0 52 -4 52 -7 0 -10 235 -15 615 -15 372 0 615 5 615 14 0 3 26 7 58 8
99 2 102 3 95 14 -4 6 0 8 10 4 10 -4 17 -2 17 4 0 6 7 9 15 6 8 -4 17 -2 20
3 3 5 12 7 19 4 8 -3 17 0 22 7 5 8 3 10 -6 4 -9 -5 -11 -4 -6 3 4 7 15 12 25
12 9 0 23 6 30 13 11 10 12 9 6 -3 -8 -13 -7 -13 11 0 10 8 23 21 27 28 5 7
12 10 18 7 5 -4 9 -1 9 5 0 6 5 8 10 5 6 -4 9 -1 8 6 -2 7 2 13 7 14 6 0 33
22 60 49 28 27 43 46 35 42 -8 -4 -4 2 10 14 14 12 18 18 10 14 -8 -4 -2 5 13
19 15 15 26 31 23 36 -3 4 3 16 14 26 11 10 20 26 20 35 0 9 6 22 13 29 9 10
9 12 0 7 -8 -5 -8 2 2 20 8 15 12 31 9 36 -3 4 -1 8 3 8 9 0 12 17 14 78 0 17
5 32 10 32 5 0 9 29 9 65 0 36 -4 65 -9 65 -8 0 -12 41 -12 123 0 15 -3 26 -8
23 -4 -3 -9 8 -10 24 -3 57 -5 70 -11 70 -5 0 -10 25 -12 60 0 8 -7 23 -15 32
-8 9 -12 21 -9 26 3 5 -3 20 -14 32 -23 26 -25 34 -7 24 6 -4 1 5 -12 19 -14
15 -21 27 -16 27 5 0 0 7 -11 16 -10 8 -12 13 -4 9 8 -4 6 1 -4 9 -11 9 -16
16 -11 16 5 0 0 7 -11 16 -10 8 -12 12 -4 9 8 -4 -1 8 -20 27 -19 19 -37 35
-40 35 -3 0 -11 1 -18 2 -7 0 -11 5 -8 10 5 8 -17 23 -37 25 -4 1 -12 8 -17
16 -5 8 -10 11 -10 6 0 -5 -7 -3 -15 4 -18 15 -56 23 -107 22 -21 0 -38 4 -38
9 0 12 -27 12 -34 0z m-1328 -253 c13 -11 15 -11 8 2 -4 9 -2 8 7 -2 8 -10 17
-15 20 -11 4 3 7 1 7 -5 0 -6 13 -18 29 -26 17 -9 38 -35 52 -63 12 -27 27
-51 33 -55 6 -4 7 -8 2 -8 -5 0 -2 -8 6 -17 14 -17 17 -30 19 -75 0 -10 3 -18
7 -18 8 0 15 -74 15 -145 0 -66 -7 -145 -13 -145 -3 0 -7 -9 -8 -20 -4 -44 -6
-50 -15 -50 -6 0 -7 -3 -4 -7 4 -3 2 -12 -4 -20 -6 -7 -8 -13 -3 -13 5 0 4 -4
-2 -8 -6 -4 -21 -28 -33 -54 -12 -26 -28 -46 -34 -45 -7 1 -11 -4 -9 -10 1 -7
-4 -12 -10 -10 -7 1 -12 -5 -10 -13 2 -8 1 -12 -3 -8 -4 4 -14 0 -22 -8 -8 -8
-19 -12 -24 -9 -5 4 -9 2 -9 -3 0 -6 -23 -9 -52 -7 -70 5 -78 7 -78 18 0 6 -3
8 -6 5 -3 -4 -14 1 -25 10 -10 9 -28 25 -39 35 -12 10 -18 22 -15 28 4 5 1 8
-7 7 -7 -2 -12 3 -10 10 1 6 -2 12 -7 12 -5 0 -12 7 -15 16 -4 10 -2 13 7 8 6
-4 2 4 -10 18 -14 15 -23 37 -23 57 0 18 -3 30 -7 28 -8 -5 -11 15 -14 81 0
17 -4 32 -9 32 -4 0 -7 29 -7 65 0 36 3 65 7 65 5 0 9 17 9 38 1 20 2 47 2 59
1 13 4 21 9 18 4 -2 7 10 8 27 0 17 11 42 24 56 13 14 17 22 11 18 -9 -5 -11
-2 -7 8 3 9 10 16 16 16 5 0 7 4 3 9 -3 6 3 14 12 20 10 5 18 13 18 18 0 4 3
7 8 6 4 -2 6 2 5 9 -2 7 4 13 12 13 8 1 14 7 12 14 -1 7 2 10 8 6 5 -3 10 -1
10 4 0 6 3 10 8 10 17 -3 33 2 29 9 -9 13 94 14 111 0z m1292 0 c0 -5 4 -7 9
-3 17 10 128 -110 123 -132 -2 -7 2 -13 8 -13 6 0 9 -4 5 -9 -3 -5 -1 -12 5
-16 6 -4 8 -11 5 -16 -4 -5 -1 -9 5 -9 6 0 8 -5 5 -10 -4 -6 -1 -17 5 -25 6
-8 9 -19 5 -25 -3 -5 -2 -10 2 -10 11 0 15 -47 15 -150 1 -108 -5 -159 -16
-153 -5 4 -7 -3 -4 -15 4 -12 2 -25 -4 -28 -5 -3 -7 -12 -4 -20 3 -7 -2 -20
-10 -29 -8 -8 -12 -19 -9 -25 3 -5 1 -10 -5 -10 -6 0 -8 -5 -5 -10 4 -6 -3
-21 -14 -33 -12 -12 -33 -36 -48 -52 -48 -53 -62 -59 -129 -61 -35 -1 -61 2
-59 6 3 4 -2 11 -11 14 -10 4 -13 2 -8 -7 8 -13 -22 11 -70 57 -17 16 -24 26
-16 22 8 -4 4 2 -8 13 -13 11 -25 26 -26 33 -5 21 -17 51 -32 79 -7 14 -11 29
-7 33 3 3 2 6 -4 6 -11 0 -13 11 -13 98 0 28 -4 52 -10 52 -5 0 -10 14 -10 31
0 17 4 28 10 24 6 -3 10 17 10 52 0 91 1 94 10 88 5 -3 9 3 9 12 1 39 5 53 13
53 5 0 7 4 4 9 -3 5 1 14 9 21 8 7 12 16 10 21 -3 4 7 20 22 35 16 14 21 23
13 19 -8 -5 2 8 23 28 21 20 45 37 53 37 8 0 17 6 20 13 6 16 124 20 124 5z"/>
</g>
</svg>
